<svg width="243" height="31" viewBox="0 0 243 31" fill="none" xmlns="http://www.w3.org/2000/svg">
<path d="M23.704 30L22.738 3.75H17.278L12.28 23.406H11.86L6.82 3.75H1.402L0.436 30H1.78L2.62 6.984H3.04L8.668 28.95H12.196L17.824 6.984H18.244L19.084 30H23.704ZM37.6447 25.128C36.8467 26.766 35.6287 28.152 34.3267 28.152C32.8987 28.152 31.8487 27.102 31.8487 25.212C31.8487 22.482 33.3187 20.13 36.8047 19.08L37.6447 18.828V25.128ZM41.5927 30V17.61C41.5927 12.15 39.4927 10.26 35.3767 10.26C32.4367 10.26 30.5047 11.31 28.2787 13.2L29.7067 15.636C30.8407 13.368 33.0247 11.562 34.7887 11.562C36.6787 11.562 37.6447 13.116 37.6447 16.392V17.652L37.0147 17.778C30.6307 19.038 27.6487 21.978 27.6487 25.422C27.6487 28.446 29.5387 30.504 32.5207 30.504C34.8307 30.504 36.3847 29.202 37.4347 27.438H37.6447V30H41.5927ZM39.9127 5.64V3.582H30.4207V5.64H39.9127ZM51.1536 30V0.725999L47.2056 1.776V30H51.1536ZM65.6174 25.128C64.8194 26.766 63.6014 28.152 62.2994 28.152C60.8714 28.152 59.8214 27.102 59.8214 25.212C59.8214 22.482 61.2914 20.13 64.7774 19.08L65.6174 18.828V25.128ZM69.5654 30V17.61C69.5654 12.15 67.4654 10.26 63.3494 10.26C60.4094 10.26 58.4774 11.31 56.2514 13.2L57.6794 15.636C58.8134 13.368 60.9974 11.562 62.7614 11.562C64.6514 11.562 65.6174 13.116 65.6174 16.392V17.652L64.9874 17.778C58.6034 19.038 55.6214 21.978 55.6214 25.422C55.6214 28.446 57.5114 30.504 60.4934 30.504C62.8034 30.504 64.3574 29.202 65.4074 27.438H65.6174V30H69.5654ZM100.546 30V15.972C100.546 12.654 98.9083 10.26 95.6323 10.26C93.4903 10.26 91.3903 11.478 89.7523 13.83H89.5423C88.9543 11.646 87.4423 10.26 84.9223 10.26C82.8643 10.26 81.0163 11.31 79.3363 13.452H79.1263V10.26L75.1783 11.31V30H79.1263V15.594C80.1343 13.956 81.6883 12.822 83.2003 12.822C84.7123 12.822 85.8883 13.662 85.8883 16.602V30H89.8363V15.594C90.8443 13.956 92.3983 12.822 93.9103 12.822C95.4223 12.822 96.5983 13.662 96.5983 16.602V30H100.546ZM114.836 25.128C114.038 26.766 112.82 28.152 111.518 28.152C110.09 28.152 109.04 27.102 109.04 25.212C109.04 22.482 110.51 20.13 113.996 19.08L114.836 18.828V25.128ZM118.784 30V17.61C118.784 12.15 116.684 10.26 112.568 10.26C109.628 10.26 107.696 11.31 105.47 13.2L106.898 15.636C108.032 13.368 110.216 11.562 111.98 11.562C113.87 11.562 114.836 13.116 114.836 16.392V17.652L114.206 17.778C107.822 19.038 104.84 21.978 104.84 25.422C104.84 28.446 106.73 30.504 109.712 30.504C112.022 30.504 113.576 29.202 114.626 27.438H114.836V30H118.784ZM151.266 30V3.75H146.646V15.888H138.246V3.75H133.626V30H138.246V17.232H146.646V30H151.266ZM165.696 25.128C164.898 26.766 163.68 28.152 162.378 28.152C160.95 28.152 159.9 27.102 159.9 25.212C159.9 22.482 161.37 20.13 164.856 19.08L165.696 18.828V25.128ZM169.644 30V17.61C169.644 12.15 167.544 10.26 163.428 10.26C160.488 10.26 158.556 11.31 156.33 13.2L157.758 15.636C158.892 13.368 161.076 11.562 162.84 11.562C164.73 11.562 165.696 13.116 165.696 16.392V17.652L165.066 17.778C158.682 19.038 155.7 21.978 155.7 25.422C155.7 28.446 157.59 30.504 160.572 30.504C162.882 30.504 164.436 29.202 165.486 27.438H165.696V30H169.644ZM191.604 30L196.728 10.764H195.3L191.226 26.052H190.974L187.026 10.764H182.994L184.38 15.678L181.566 26.052H181.314L177.282 10.764H173.124L178.5 30H181.902L184.926 18.66H185.178L188.244 30H191.604ZM209.049 25.128C208.251 26.766 207.033 28.152 205.731 28.152C204.303 28.152 203.253 27.102 203.253 25.212C203.253 22.482 204.723 20.13 208.209 19.08L209.049 18.828V25.128ZM212.997 30V17.61C212.997 12.15 210.897 10.26 206.781 10.26C203.841 10.26 201.909 11.31 199.683 13.2L201.111 15.636C202.245 13.368 204.429 11.562 206.193 11.562C208.083 11.562 209.049 13.116 209.049 16.392V17.652L208.419 17.778C202.035 19.038 199.053 21.978 199.053 25.422C199.053 28.446 200.943 30.504 203.925 30.504C206.235 30.504 207.789 29.202 208.839 27.438H209.049V30H212.997ZM222.642 30V10.26L218.694 11.31V30H222.642ZM220.71 6.984C222.096 6.984 223.104 5.808 223.104 4.296C223.104 2.826 222.054 1.608 220.668 1.608C219.282 1.608 218.232 2.826 218.232 4.296C218.232 5.808 219.324 6.984 220.71 6.984ZM232.818 1.776C230.13 3.792 227.106 7.488 227.106 11.016C227.106 13.326 228.408 14.754 230.298 14.754C232.104 14.754 233.112 13.284 233.112 11.772C231.516 11.478 230.424 10.218 230.424 8.79C230.424 6.858 231.39 4.968 233.616 2.658L232.818 1.776ZM241.878 30V10.26L237.93 11.31V30H241.878ZM239.946 6.984C241.332 6.984 242.34 5.808 242.34 4.296C242.34 2.826 241.29 1.608 239.904 1.608C238.518 1.608 237.468 2.826 237.468 4.296C237.468 5.808 238.56 6.984 239.946 6.984Z" fill="white"/>
</svg>
